<?xml version="1.0" standalone="no"?>
<!DOCTYPE svg PUBLIC "-//W3C//DTD SVG 20010904//EN"
 "http://www.w3.org/TR/2001/REC-SVG-20010904/DTD/svg10.dtd">
<svg version="1.0" xmlns="http://www.w3.org/2000/svg"
 width="823.000000pt" height="823.000000pt" viewBox="0 0 823.000000 823.000000"
 preserveAspectRatio="xMidYMid meet">
<metadata>
Created by potrace 1.14, written by Peter Selinger 2001-2017
</metadata>
<g transform="translate(0.000000,823.000000) scale(0.100000,-0.100000)"
fill="#000000" stroke="none">
<path d="M632 7795 c-155 -40 -277 -109 -387 -219 -122 -122 -206 -280 -228
-427 -2 -8 -6 -19 -10 -25 -8 -14 -3 -5998 5 -6034 3 -14 11 -37 17 -52 6 -16
9 -28 6 -28 -9 0 50 -129 87 -192 52 -87 166 -205 248 -257 36 -22 70 -45 77
-51 7 -5 18 -10 26 -10 7 0 17 -4 22 -8 9 -9 114 -43 180 -59 40 -10 6840 -10
6885 0 237 53 456 212 561 407 13 25 29 48 34 52 6 4 6 8 1 8 -5 0 -3 7 4 15
7 8 9 15 5 15 -4 0 -3 6 3 13 11 13 38 99 50 157 10 49 9 5996 -1 6045 -24
118 -87 259 -155 345 -38 49 -133 141 -180 177 -40 30 -153 89 -199 103 -21 6
-45 14 -53 17 -8 3 -24 8 -35 10 -11 2 -45 8 -75 13 -35 7 -1237 10 -3425 10
l-3370 -1 -93 -24z"/>
</g>
</svg>
